<?xml version="1.0" encoding="UTF-8" standalone="no"?>
<!DOCTYPE svg PUBLIC "-//W3C//DTD SVG 1.1//EN" "http://www.w3.org/Graphics/SVG/1.1/DTD/svg11.dtd">
<svg width="100%" height="100%" viewBox="0 0 1080 1080" version="1.1" xmlns="http://www.w3.org/2000/svg" xmlns:xlink="http://www.w3.org/1999/xlink" xml:space="preserve" xmlns:serif="http://www.serif.com/" style="fill-rule:evenodd;clip-rule:evenodd;stroke-linejoin:round;stroke-miterlimit:2;">
    <g transform="matrix(0.816268,0,0,0.808555,97.3479,102.534)">
        <path d="M1073.98,272.663C1073.98,124.539 954.859,4.28 808.135,4.28L276.441,4.28C129.716,4.28 10.594,124.539 10.594,272.663L10.594,809.429C10.594,957.554 129.716,1077.81 276.441,1077.81L808.135,1077.81C954.859,1077.81 1073.98,957.554 1073.98,809.429L1073.98,272.663Z" style="fill:white;"/>
    </g>
    <g transform="matrix(6.68951,0,0,6.68951,482.364,540)">
        <g transform="matrix(1,0,0,1,-55,-39)">
            <path d="M106.69,33.89C104.511,33.89 103.059,32.612 103.059,29.99L103.059,14.928C103.059,5.312 99.098,0 88.864,0L84.111,0L84.111,10.153L85.563,10.153C89.591,10.153 91.505,12.372 91.505,16.34L91.505,29.654C91.505,35.436 93.222,37.79 96.985,39C93.222,40.143 91.505,42.564 91.505,48.347L91.505,58.231C91.505,60.988 91.505,63.678 90.779,66.434C90.053,68.99 88.864,71.41 87.214,73.495C86.29,74.705 85.233,75.714 84.045,76.655L84.045,78L88.798,78C99.032,78 102.993,72.688 102.993,63.072L102.993,48.01C102.993,45.321 104.379,44.11 106.624,44.11L109.331,44.11L109.331,33.957L106.69,33.957L106.69,33.89Z" style="fill-rule:nonzero;"/>
            <path d="M74.34,15.333L59.683,15.333C59.353,15.333 59.089,15.064 59.089,14.728L59.089,13.585C59.089,13.249 59.353,12.98 59.683,12.98L74.406,12.98C74.736,12.98 75,13.249 75,13.585L75,14.728C75,15.064 74.67,15.333 74.34,15.333Z" style="fill-rule:nonzero;"/>
            <path d="M76.848,29.857L66.153,29.857C65.823,29.857 65.559,29.587 65.559,29.251L65.559,28.108C65.559,27.772 65.823,27.503 66.153,27.503L76.848,27.503C77.179,27.503 77.442,27.772 77.442,28.108L77.442,29.251C77.442,29.52 77.179,29.857 76.848,29.857Z" style="fill-rule:nonzero;"/>
            <path d="M81.074,22.595L59.683,22.595C59.353,22.595 59.089,22.326 59.089,21.99L59.089,20.847C59.089,20.51 59.353,20.241 59.683,20.241L81.008,20.241C81.338,20.241 81.602,20.51 81.602,20.847L81.602,21.99C81.602,22.259 81.404,22.595 81.074,22.595Z" style="fill-rule:nonzero;"/>
            <path d="M42.715,18.626C44.168,18.626 45.62,18.76 47.007,19.097L47.007,16.34C47.007,12.44 48.987,10.153 52.949,10.153L54.401,10.153L54.401,0L49.648,0C39.414,0 35.453,5.312 35.453,14.928L35.453,19.903C37.764,19.097 40.207,18.626 42.715,18.626Z" style="fill-rule:nonzero;"/>
            <path d="M85.563,55.204C84.507,46.664 78.037,39.536 69.718,37.923C67.408,37.452 65.097,37.385 62.852,37.788C62.786,37.788 62.786,37.721 62.72,37.721C59.089,29.988 51.298,24.878 42.848,24.878C34.397,24.878 26.673,29.854 22.975,37.586C22.909,37.586 22.909,37.654 22.843,37.654C20.467,37.385 18.09,37.519 15.713,38.124C7.526,40.141 1.32,47.135 0.198,55.607C0.066,56.481 0,57.355 0,58.162C0,60.717 1.717,63.071 4.225,63.407C7.328,63.878 10.035,61.457 9.969,58.364C9.969,57.893 9.969,57.355 10.035,56.885C10.563,52.581 13.798,48.95 18.024,47.941C19.344,47.605 20.665,47.538 21.919,47.74C25.946,48.278 29.908,46.193 31.624,42.562C32.879,39.873 34.859,37.519 37.5,36.241C40.405,34.829 43.706,34.628 46.743,35.704C49.912,36.847 52.289,39.267 53.741,42.293C55.26,45.252 55.986,47.336 59.221,47.74C60.541,47.941 64.239,47.874 65.625,47.807C68.332,47.807 71.039,48.748 72.953,50.698C74.208,52.043 75.132,53.724 75.528,55.607C76.122,58.633 75.396,61.659 73.614,63.945C72.359,65.559 70.643,66.769 68.728,67.307C67.804,67.576 66.879,67.643 65.955,67.643L51.364,67.643C48.46,67.643 46.149,65.29 46.149,62.331L46.149,42.629C46.149,41.823 45.489,41.15 44.696,41.15L42.65,41.15C38.622,41.217 35.387,45.79 35.387,50.631L35.387,68.316C35.387,73.561 39.547,77.797 44.696,77.797C44.696,77.797 67.606,77.729 67.936,77.729C73.217,77.191 78.103,74.435 81.404,70.198C84.705,66.097 86.224,60.717 85.563,55.204Z" style="fill-rule:nonzero;"/>
        </g>
    </g>
</svg>
